<svg width="24" height="24" viewBox="0 0 24 24" fill="none" xmlns="http://www.w3.org/2000/svg">
  <path d="M12 2C6.48 2 2 6.48 2 12C2 17.52 6.48 22 12 22C17.52 22 22 17.52 22 12C22 6.48 17.52 2 12 2ZM7 13.5C6.17 13.5 5.5 12.83 5.5 12C5.5 11.17 6.17 10.5 7 10.5C7.83 10.5 8.5 11.17 8.5 12C8.5 12.83 7.83 13.5 7 13.5ZM10.5 17.5C9.67 17.5 9 16.83 9 16C9 15.17 9.67 14.5 10.5 14.5C11.33 14.5 12 15.17 12 16C12 16.83 11.33 17.5 10.5 17.5ZM10.5 9.5C9.67 9.5 9 8.83 9 8C9 7.17 9.67 6.5 10.5 6.5C11.33 6.5 12 7.17 12 8C12 8.83 11.33 9.5 10.5 9.5ZM15 14.5C14.17 14.5 13.5 13.83 13.5 13C13.5 12.17 14.17 11.5 15 11.5C15.83 11.5 16.5 12.17 16.5 13C16.5 13.83 15.83 14.5 15 14.5ZM17 9.5C16.17 9.5 15.5 8.83 15.5 8C15.5 7.17 16.17 6.5 17 6.5C17.83 6.5 18.5 7.17 18.5 8C18.5 8.83 17.83 9.5 17 9.5Z" fill="currentColor"/>
</svg> 