<?xml version="1.0" encoding="UTF-8"?>
<svg width="24" height="24" viewBox="0 0 24 24" fill="none" xmlns="http://www.w3.org/2000/svg">
  <!-- 渐变定义 -->
  <defs>
    <linearGradient id="crownGradient" x1="0%" y1="0%" x2="100%" y2="100%">
      <stop offset="0%" style="stop-color:#FFCA28" />
      <stop offset="100%" style="stop-color:#F59E0B" />
    </linearGradient>
    <filter id="crownGlow" x="-20%" y="-20%" width="140%" height="140%">
      <feGaussianBlur stdDeviation="1" result="blur"/>
      <feComposite in="SourceGraphic" in2="blur" operator="over"/>
    </filter>
    <linearGradient id="gemsGradient" x1="0%" y1="0%" x2="100%" y2="100%">
      <stop offset="0%" style="stop-color:#60A5FA" />
      <stop offset="100%" style="stop-color:#3B82F6" />
    </linearGradient>
  </defs>
  
  <!-- 底部阴影 -->
  <ellipse cx="12" cy="19.5" rx="7" ry="1.5" fill="rgba(0,0,0,0.15)" />
  
  <!-- 皇冠主体 -->
  <path d="M19 9l-2.5 5h-9L5 9l2.5 9h9L19 9z" fill="url(#crownGradient)" filter="url(#crownGlow)" />
  
  <!-- 皇冠顶部装饰 -->
  <path d="M12 7V3M7 9L4 6M17 9l3-3" stroke="url(#crownGradient)" stroke-width="2" stroke-linecap="round" />
  
  <!-- 皇冠顶部中央装饰 -->
  <circle cx="12" cy="6" r="1.5" fill="url(#crownGradient)" />
  
  <!-- 皇冠左右装饰 -->
  <circle cx="7" cy="9" r="1.5" fill="url(#crownGradient)" />
  <circle cx="17" cy="9" r="1.5" fill="url(#crownGradient)" />
  
  <!-- 宝石装饰 -->
  <circle cx="12" cy="12" r="1" fill="url(#gemsGradient)" />
  <circle cx="8.5" cy="12" r="0.8" fill="url(#gemsGradient)" />
  <circle cx="15.5" cy="12" r="0.8" fill="url(#gemsGradient)" />
  
  <!-- 高光效果 -->
  <path d="M9 14l6 0" stroke="white" stroke-width="0.5" stroke-opacity="0.6" />
  <path d="M7.5 16l9 0" stroke="white" stroke-width="0.5" stroke-opacity="0.6" />
</svg> 