<?xml version="1.0" encoding="UTF-8"?>
<svg width="24" height="24" viewBox="0 0 24 24" fill="none" xmlns="http://www.w3.org/2000/svg">
  <!-- 渐变定义 -->
  <defs>
    <linearGradient id="crownGradient" x1="0%" y1="0%" x2="100%" y2="100%">
      <stop offset="0%" style="stop-color:#FFD54F" />
      <stop offset="100%" style="stop-color:#F59E0B" />
    </linearGradient>
    <filter id="crownGlow" x="-20%" y="-20%" width="140%" height="140%">
      <feGaussianBlur stdDeviation="1.2" result="blur"/>
      <feComposite in="SourceGraphic" in2="blur" operator="over"/>
    </filter>
    <linearGradient id="gemsGradient" x1="0%" y1="0%" x2="100%" y2="100%">
      <stop offset="0%" style="stop-color:#93C5FD" />
      <stop offset="100%" style="stop-color:#3B82F6" />
    </linearGradient>
    <linearGradient id="pinkGemGradient" x1="0%" y1="0%" x2="100%" y2="100%">
      <stop offset="0%" style="stop-color:#FBCFE8" />
      <stop offset="100%" style="stop-color:#EC4899" />
    </linearGradient>
  </defs>
  
  <!-- 底部阴影 -->
  <ellipse cx="12" cy="19.5" rx="7" ry="1.5" fill="rgba(0,0,0,0.12)" />
  
  <!-- 皇冠主体 - 更圆润的形状 -->
  <path d="M19 9c0 0-2 6.5-2 6.5c-0.5 1.5-1.5 2-5 2s-4.5-0.5-5-2c0 0-2-6.5-2-6.5c0-0.5 0.2-1 0.6-1.4c0.4-0.4 0.9-0.6 1.4-0.6c1 0 1.8 0.8 2 1.8l1 3.2l2-5c0.3-0.6 0.9-1 1.6-1h0.8c0.7 0 1.3 0.4 1.6 1l2 5l1-3.2c0.2-1 1-1.8 2-1.8c0.5 0 1 0.2 1.4 0.6c0.4 0.4 0.6 0.9 0.6 1.4z" 
        fill="url(#crownGradient)" filter="url(#crownGlow)" />
  
  <!-- 皇冠顶部装饰 - 更圆润 -->
  <circle cx="5" cy="9" r="2" fill="url(#crownGradient)" />
  <circle cx="12" cy="5" r="2" fill="url(#crownGradient)" />
  <circle cx="19" cy="9" r="2" fill="url(#crownGradient)" />
  
  <!-- 宝石装饰 - 更多彩 -->
  <circle cx="12" cy="12" r="1.2" fill="url(#pinkGemGradient)" />
  <circle cx="9" cy="12" r="0.9" fill="url(#gemsGradient)" />
  <circle cx="15" cy="12" r="0.9" fill="url(#gemsGradient)" />
  
  <!-- 高光效果 -->
  <path d="M9 14.5c2,0.5 4,0.5 6,0" stroke="white" stroke-width="0.6" stroke-opacity="0.7" stroke-linecap="round" />
  <path d="M8 16c2.67,0.5 5.33,0.5 8,0" stroke="white" stroke-width="0.6" stroke-opacity="0.7" stroke-linecap="round" />
</svg> 