<svg xmlns="http://www.w3.org/2000/svg" viewBox="0 0 24 24" fill="currentColor" stroke="currentColor" stroke-width="1" stroke-linecap="round" stroke-linejoin="round">
  <defs>
    <linearGradient id="heartGradient" x1="0%" y1="0%" x2="100%" y2="100%">
      <stop offset="0%" stop-color="#FF5252" />
      <stop offset="100%" stop-color="#FF1744" />
    </linearGradient>
  </defs>
  <path d="M12 21.35l-1.45-1.32C5.4 15.36 2 12.28 2 8.5 2 5.42 4.42 3 7.5 3c1.74 0 3.41.81 4.5 2.09C13.09 3.81 14.76 3 16.5 3 19.58 3 22 5.42 22 8.5c0 3.78-3.4 6.86-8.55 11.54L12 21.35z" 
        fill="url(#heartGradient)" 
        stroke="#FF1744" />
  <path d="M12 7C11 5 9 4 7.5 4C5.5 4 4 5.5 4 7.5C4 9.5 5 11 7 13C9 15 12 17 12 17" 
        fill="white"
        opacity="0.3" />
</svg> 