<?xml version="1.0" encoding="UTF-8"?>
<svg width="24" height="24" viewBox="0 0 24 24" fill="none" xmlns="http://www.w3.org/2000/svg">
  <!-- 渐变定义 -->
  <defs>
    <linearGradient id="privacyGradient" x1="0%" y1="0%" x2="100%" y2="100%">
      <stop offset="0%" style="stop-color:#3B82F6" />
      <stop offset="100%" style="stop-color:#8B5CF6" />
    </linearGradient>
  </defs>
  
  <!-- 背景 -->
  <circle cx="12" cy="12" r="10" fill="url(#privacyGradient)" opacity="0.2" />
  
  <!-- 盾牌外框 -->
  <path d="M12 4L5 7v5c0 4.1 3 7.8 7 8.6 4-0.8 7-4.5 7-8.6V7l-7-3z" stroke="url(#privacyGradient)" stroke-width="1.5" stroke-linecap="round" stroke-linejoin="round" />
  
  <!-- 锁 -->
  <rect x="9" y="11" width="6" height="4" rx="1" fill="url(#privacyGradient)" opacity="0.6" />
  <path d="M10 11v-2a2 2 0 114 0v2" stroke="url(#privacyGradient)" stroke-width="1.5" stroke-linecap="round" />
  
  <!-- 装饰性元素 - 小星星 -->
  <path d="M18 5l1 1-1 1-1-1z" fill="url(#privacyGradient)" opacity="0.4" />
  <path d="M5 18l1 1-1 1-1-1z" fill="url(#privacyGradient)" opacity="0.4" />
  <path d="M19 16l1 1-1 1-1-1z" fill="url(#privacyGradient)" opacity="0.4" />
</svg> 